<svg width="48" height="48" viewBox="0 0 48 48" fill="none" xmlns="http://www.w3.org/2000/svg">
<path opacity="0.5" d="M23.971 33.3363C30.4575 33.3363 35.7157 27.9479 35.7157 21.3009C35.7157 14.6539 30.4575 9.26547 23.971 9.26547C17.4846 9.26547 12.2263 14.6539 12.2263 21.3009C12.2263 27.9479 17.4846 33.3363 23.971 33.3363Z" fill="#FF9255"/>
<path opacity="0.5" d="M23.971 33.3363C30.4575 33.3363 35.7157 27.9478 35.7157 21.3009C35.7157 14.6539 30.4575 9.26543 23.971 9.26543C17.4846 9.26543 12.2263 14.6539 12.2263 21.3009C12.2263 27.9478 17.4846 33.3363 23.971 33.3363Z" fill="#EA7530"/>
<path d="M37.7716 7.24713C34.0854 3.46969 29.1842 1.38933 23.9711 1.38933C18.7579 1.38933 13.8567 3.46969 10.1705 7.24713C6.48421 11.0247 4.4541 16.0471 4.4541 21.3894C4.4541 30.8141 10.8838 38.9507 19.8161 40.9336L23.9711 46.6107L28.1261 40.9335C37.0583 38.9506 43.488 30.8141 43.488 21.3894C43.488 16.0471 41.4579 11.0247 37.7716 7.24713ZM23.9711 6.61058C31.8757 6.61058 38.3065 13.2007 38.3065 21.3009C38.3065 29.4011 31.8757 35.9912 23.9711 35.9912C16.0664 35.9912 9.63559 29.4011 9.63559 21.3009C9.63559 13.2007 16.0664 6.61058 23.9711 6.61058Z" fill="#EA7530"/>
</svg>
