<svg width="16" height="16" viewBox="0 0 16 16" fill="none" xmlns="http://www.w3.org/2000/svg">
<path d="M3.33333 14.6668C2.96667 14.6668 2.65267 14.5364 2.39133 14.2755C2.13044 14.0142 2 13.7002 2 13.3335V4.00016C2 3.6335 2.13044 3.31972 2.39133 3.05883C2.65267 2.7975 2.96667 2.66683 3.33333 2.66683H4V1.9835C4 1.79461 4.06378 1.63905 4.19133 1.51683C4.31933 1.39461 4.47778 1.3335 4.66667 1.3335C4.85556 1.3335 5.014 1.39727 5.142 1.52483C5.26956 1.65283 5.33333 1.81127 5.33333 2.00016V2.66683H10.6667V1.9835C10.6667 1.79461 10.7307 1.63905 10.8587 1.51683C10.9862 1.39461 11.1444 1.3335 11.3333 1.3335C11.5222 1.3335 11.6804 1.39727 11.808 1.52483C11.936 1.65283 12 1.81127 12 2.00016V2.66683H12.6667C13.0333 2.66683 13.3473 2.7975 13.6087 3.05883C13.8696 3.31972 14 3.6335 14 4.00016V13.3335C14 13.7002 13.8696 14.0142 13.6087 14.2755C13.3473 14.5364 13.0333 14.6668 12.6667 14.6668H3.33333ZM3.33333 13.3335H12.6667V6.66683H3.33333V13.3335ZM3.33333 5.3335H12.6667V4.00016H3.33333V5.3335ZM3.33333 5.3335V4.00016V5.3335Z" fill="white"/>
</svg>
