<svg width="116" height="34" viewBox="0 0 116 34" fill="none" xmlns="http://www.w3.org/2000/svg">
<path d="M0 16.5001C0 14.7088 0.36645 13.1467 1.09935 11.8136C1.83225 10.4598 2.84784 9.41835 4.14612 8.68935C5.44441 7.93952 6.93115 7.56461 8.60635 7.56461C10.7632 7.56461 12.5431 8.10615 13.9461 9.18924C15.37 10.2515 16.3227 11.7512 16.8044 13.6882H12.0615C11.8102 12.9384 11.3809 12.3552 10.7736 11.9386C10.1873 11.5012 9.45442 11.2825 8.57494 11.2825C7.31854 11.2825 6.32389 11.7407 5.59099 12.6572C4.85809 13.5528 4.49163 14.8338 4.49163 16.5001C4.49163 18.1456 4.85809 19.4265 5.59099 20.343C6.32389 21.2386 7.31854 21.6864 8.57494 21.6864C10.3548 21.6864 11.517 20.8949 12.0615 19.312H16.8044C16.3227 21.1865 15.37 22.6758 13.9461 23.7797C12.5221 24.8836 10.7422 25.4356 8.60635 25.4356C6.93115 25.4356 5.44441 25.0711 4.14612 24.3421C2.84784 23.5922 1.83225 22.5508 1.09935 21.2178C0.36645 19.8639 0 18.2914 0 16.5001Z" fill="white"/>
<path d="M22.256 5.78376C21.4812 5.78376 20.8321 5.54423 20.3085 5.06517C19.806 4.56528 19.5547 3.95084 19.5547 3.22184C19.5547 2.49283 19.806 1.8888 20.3085 1.40974C20.8321 0.909856 21.4812 0.659912 22.256 0.659912C23.0308 0.659912 23.6694 0.909856 24.172 1.40974C24.6955 1.8888 24.9572 2.49283 24.9572 3.22184C24.9572 3.95084 24.6955 4.56528 24.172 5.06517C23.6694 5.54423 23.0308 5.78376 22.256 5.78376ZM24.4233 7.84579V25.1544H20.0259V7.84579H24.4233Z" fill="white"/>
<path d="M33.8877 11.4387V19.8118C33.8877 20.395 34.0239 20.822 34.2961 21.0928C34.5892 21.3428 35.0709 21.4677 35.7409 21.4677H37.7826V25.1544H35.0185C31.3121 25.1544 29.4589 23.3631 29.4589 19.7806V11.4387H27.3859V7.84579H29.4589V3.56551H33.8877V7.84579H37.7826V11.4387H33.8877Z" fill="white"/>
<path d="M57.5927 7.84579L46.8191 33.34H42.139L45.9082 24.717L38.9352 7.84579H43.8666L48.3582 19.9368L52.9127 7.84579H57.5927Z" fill="white"/>
<path d="M64.3606 10.3765C64.926 9.54333 65.7008 8.8664 66.685 8.34568C67.6901 7.82496 68.8313 7.56461 70.1087 7.56461C71.5954 7.56461 72.9356 7.92911 74.1292 8.65811C75.3437 9.38711 76.2964 10.4285 76.9875 11.7824C77.6994 13.1154 78.0554 14.6672 78.0554 16.4376C78.0554 18.208 77.6994 19.7806 76.9875 21.1553C76.2964 22.5092 75.3437 23.561 74.1292 24.3108C72.9356 25.0607 71.5954 25.4356 70.1087 25.4356C68.8104 25.4356 67.6692 25.1856 66.685 24.6857C65.7217 24.165 64.947 23.4985 64.3606 22.6862V25.1544H59.9632V2.0346H64.3606V10.3765ZM73.5638 16.4376C73.5638 15.3962 73.3439 14.5005 72.9042 13.7507C72.4854 12.9801 71.92 12.3969 71.208 12.0011C70.517 11.6054 69.7632 11.4075 68.9465 11.4075C68.1508 11.4075 67.3969 11.6158 66.685 12.0323C65.9939 12.4281 65.4286 13.0113 64.9888 13.782C64.57 14.5526 64.3606 15.4587 64.3606 16.5001C64.3606 17.5415 64.57 18.4476 64.9888 19.2182C65.4286 19.9889 65.9939 20.5825 66.685 20.9991C67.3969 21.3948 68.1508 21.5927 68.9465 21.5927C69.7632 21.5927 70.517 21.3844 71.208 20.9678C71.92 20.5513 72.4854 19.9576 72.9042 19.187C73.3439 18.4163 73.5638 17.4999 73.5638 16.4376Z" fill="white"/>
<path d="M88.9778 25.4356C87.3026 25.4356 85.7949 25.0711 84.4547 24.3421C83.1145 23.5922 82.0571 22.5404 81.2823 21.1865C80.5285 19.8327 80.1515 18.2705 80.1515 16.5001C80.1515 14.7297 80.5389 13.1675 81.3137 11.8136C82.1094 10.4598 83.1878 9.41835 84.5489 8.68935C85.91 7.93952 87.4282 7.56461 89.1034 7.56461C90.7786 7.56461 92.2967 7.93952 93.6578 8.68935C95.0189 9.41835 96.0869 10.4598 96.8617 11.8136C97.6574 13.1675 98.0553 14.7297 98.0553 16.5001C98.0553 18.2705 97.6469 19.8327 96.8303 21.1865C96.0345 22.5404 94.9457 23.5922 93.5636 24.3421C92.2025 25.0711 90.6739 25.4356 88.9778 25.4356ZM88.9778 21.6239C89.7735 21.6239 90.5168 21.4365 91.2079 21.0616C91.9198 20.6658 92.4852 20.0826 92.904 19.312C93.3228 18.5413 93.5322 17.604 93.5322 16.5001C93.5322 14.8546 93.0925 13.5945 92.213 12.7197C91.3544 11.8241 90.297 11.3762 89.0406 11.3762C87.7842 11.3762 86.7267 11.8241 85.8682 12.7197C85.0306 13.5945 84.6118 14.8546 84.6118 16.5001C84.6118 18.1456 85.0201 19.4161 85.8367 20.3117C86.6743 21.1865 87.7214 21.6239 88.9778 21.6239Z" fill="white"/>
<path d="M110.892 25.1544L107.312 19.7806L104.139 25.1544H99.4277L105.113 16.4689L99.3649 7.84579H104.328L107.877 13.1883L111.081 7.84579H115.792L110.076 16.4689L115.855 25.1544H110.892Z" fill="white"/>
</svg>
