<svg width="40" height="46" viewBox="0 0 40 46" fill="none" xmlns="http://www.w3.org/2000/svg">
<path opacity="0.5" d="M19.5169 31.947C26.0034 31.947 31.2616 26.5586 31.2616 19.9116C31.2616 13.2646 26.0034 7.87616 19.5169 7.87616C13.0305 7.87616 7.77222 13.2646 7.77222 19.9116C7.77222 26.5586 13.0305 31.947 19.5169 31.947Z" fill="#898989"/>
<path opacity="0.5" d="M19.5169 31.9469C26.0034 31.9469 31.2616 26.5585 31.2616 19.9115C31.2616 13.2645 26.0034 7.8761 19.5169 7.8761C13.0305 7.8761 7.77222 13.2645 7.77222 19.9115C7.77222 26.5585 13.0305 31.9469 19.5169 31.9469Z" fill="#898989"/>
<path d="M33.3175 5.8578C29.6313 2.08036 24.7301 0 19.5169 0C14.3038 0 9.40259 2.08036 5.71639 5.8578C2.03011 9.63542 0 14.6578 0 20C0 29.4248 6.42971 37.5614 15.362 39.5442L19.5169 45.2213L23.672 39.5442C32.6042 37.5613 39.0339 29.4248 39.0339 20C39.0339 14.6578 37.0038 9.63542 33.3175 5.8578ZM19.5169 5.22125C27.4216 5.22125 33.8524 11.8114 33.8524 19.9115C33.8524 28.0117 27.4216 34.6018 19.5169 34.6018C11.6123 34.6018 5.18149 28.0117 5.18149 19.9115C5.18149 11.8114 11.6123 5.22125 19.5169 5.22125Z" fill="#222529"/>
</svg>
