<svg width="20" height="19" viewBox="0 0 20 19" fill="none" xmlns="http://www.w3.org/2000/svg">
<path d="M17.125 7.91667C17.125 13.4583 10 18.2083 10 18.2083C10 18.2083 2.875 13.4583 2.875 7.91667C2.875 6.027 3.62567 4.21473 4.96186 2.87854C6.29806 1.54234 8.11033 0.791672 10 0.791672C11.8897 0.791672 13.7019 1.54234 15.0381 2.87854C16.3743 4.21473 17.125 6.027 17.125 7.91667Z" stroke="#898989" strokeWidth="1.5" strokeLinecap="round" strokeLinejoin="round"/>
<path d="M10 10.2917C11.3117 10.2917 12.375 9.22835 12.375 7.91667C12.375 6.605 11.3117 5.54167 10 5.54167C8.68832 5.54167 7.625 6.605 7.625 7.91667C7.625 9.22835 8.68832 10.2917 10 10.2917Z" stroke="#898989" strokeWidth="1.5" strokeLinecap="round" strokeLinejoin="round"/>
</svg>
