<svg width="25" height="24" viewBox="0 0 25 24" fill="none" xmlns="http://www.w3.org/2000/svg">
<path d="M13.8248 10.6752L5.94059 18.5594M6.79145 12.8375L2.92965 11.9253C2.50478 11.825 2.35535 11.2975 2.66313 10.9886L5.73428 7.91744C5.94059 7.71113 6.22049 7.59292 6.51378 7.59069L9.97635 7.56059M14.3377 3.59842C16.9149 5.35591 19.1441 7.58512 20.9016 10.1623M11.6614 17.7085L12.5736 21.5703C12.6739 21.9952 13.2014 22.1447 13.5103 21.8369L16.5814 18.7657C16.7878 18.5594 16.906 18.2795 16.9082 17.9862L16.9383 14.5236M21.5629 8.35012L22.4639 4.01438C22.7093 2.83454 21.6655 1.79075 20.4856 2.03608L16.1499 2.93713C14.873 3.20254 13.7021 3.83483 12.781 4.75707L9.22362 8.31332C7.86647 9.67047 6.98326 11.4302 6.70447 13.3293L6.69221 13.4107C6.51601 14.6229 6.92193 15.8462 7.78729 16.7127C8.65266 17.5781 9.8771 17.984 11.0893 17.8067L11.1707 17.7944C13.0698 17.5167 14.8295 16.6324 16.1867 15.2753L19.7429 11.719C20.6652 10.7979 21.2975 9.62698 21.5629 8.35012Z" stroke="#EA7530" strokeWidth="2" strokeLinecap="round" strokeLinejoin="round"/>
</svg>
